<?xml version="1.0" encoding="UTF-8"?>
<svg width="512px" height="512px" viewBox="0 0 512 512" version="1.1" xmlns="http://www.w3.org/2000/svg" xmlns:xlink="http://www.w3.org/1999/xlink">
    <!-- Generator: Sketch 41.1 (35376) - http://www.bohemiancoding.com/sketch -->
    <title>Slice</title>
    <desc>Created with Sketch.</desc>
    <defs>
        <path d="M82,79.1085495 L82,0.125" id="path-1"></path>
        <filter x="-50%" y="-50%" width="200%" height="200%" filterUnits="objectBoundingBox" id="filter-2">
            <feMorphology radius="3" operator="dilate" in="SourceAlpha" result="shadowSpreadOuter1"></feMorphology>
            <feOffset dx="0" dy="2" in="shadowSpreadOuter1" result="shadowOffsetOuter1"></feOffset>
            <feMorphology radius="3" operator="erode" in="SourceAlpha" result="shadowInner"></feMorphology>
            <feOffset dx="0" dy="2" in="shadowInner" result="shadowInner"></feOffset>
            <feComposite in="shadowOffsetOuter1" in2="shadowInner" operator="out" result="shadowOffsetOuter1"></feComposite>
            <feGaussianBlur stdDeviation="5" in="shadowOffsetOuter1" result="shadowBlurOuter1"></feGaussianBlur>
            <feColorMatrix values="0 0 0 0 0.0823529412   0 0 0 0 0.62745098   0 0 0 0 0.737254902  0 0 0 0.5 0" type="matrix" in="shadowBlurOuter1"></feColorMatrix>
        </filter>
        <path d="M108.656111,6.2795623 L108.656111,20.3715439 C132.594223,30.5538398 149.390278,53.7026018 149.390278,80.6294102 C149.390278,116.922351 118.934699,146.449035 81.5,146.449035 C44.0653007,146.449035 13.6097221,116.928933 13.6097221,80.6359922 C13.6097221,53.7091838 30.4057768,30.5538398 54.3438888,20.3781259 L54.3438888,6.2795623 C22.7477535,17.1463823 0.0316664827,46.3242219 0.0316664827,80.6359922 C0.0316664827,124.188838 36.5770031,159.619542 81.5,159.619542 C126.422997,159.619542 162.968334,124.188838 162.968334,80.6359922 C162.968334,46.3242219 140.252247,17.1463823 108.656111,6.2795623 Z" id="path-3"></path>
        <filter x="-50%" y="-50%" width="200%" height="200%" filterUnits="objectBoundingBox" id="filter-4">
            <feMorphology radius="2" operator="dilate" in="SourceAlpha" result="shadowSpreadOuter1"></feMorphology>
            <feOffset dx="0" dy="0" in="shadowSpreadOuter1" result="shadowOffsetOuter1"></feOffset>
            <feGaussianBlur stdDeviation="5" in="shadowOffsetOuter1" result="shadowBlurOuter1"></feGaussianBlur>
            <feColorMatrix values="0 0 0 0 0.0823529412   0 0 0 0 0.62745098   0 0 0 0 0.737254902  0 0 0 0.5 0" type="matrix" in="shadowBlurOuter1"></feColorMatrix>
        </filter>
        <circle id="path-5" cx="39" cy="5" r="5"></circle>
        <filter x="-50%" y="-50%" width="200%" height="200%" filterUnits="objectBoundingBox" id="filter-6">
            <feMorphology radius="0.5" operator="dilate" in="SourceAlpha" result="shadowSpreadOuter1"></feMorphology>
            <feOffset dx="0" dy="0" in="shadowSpreadOuter1" result="shadowOffsetOuter1"></feOffset>
            <feGaussianBlur stdDeviation="4" in="shadowOffsetOuter1" result="shadowBlurOuter1"></feGaussianBlur>
            <feColorMatrix values="0 0 0 0 0.141176471   0 0 0 0 0.607843137   0 0 0 0 0.431372549  0 0 0 1 0" type="matrix" in="shadowBlurOuter1"></feColorMatrix>
        </filter>
        <circle id="path-7" cx="22" cy="9" r="5"></circle>
        <filter x="-50%" y="-50%" width="200%" height="200%" filterUnits="objectBoundingBox" id="filter-8">
            <feMorphology radius="0.5" operator="dilate" in="SourceAlpha" result="shadowSpreadOuter1"></feMorphology>
            <feOffset dx="0" dy="0" in="shadowSpreadOuter1" result="shadowOffsetOuter1"></feOffset>
            <feGaussianBlur stdDeviation="4" in="shadowOffsetOuter1" result="shadowBlurOuter1"></feGaussianBlur>
            <feColorMatrix values="0 0 0 0 0.141176471   0 0 0 0 0.607843137   0 0 0 0 0.431372549  0 0 0 1 0" type="matrix" in="shadowBlurOuter1"></feColorMatrix>
        </filter>
        <circle id="path-9" cx="5" cy="12" r="5"></circle>
        <filter x="-50%" y="-50%" width="200%" height="200%" filterUnits="objectBoundingBox" id="filter-10">
            <feMorphology radius="0.5" operator="dilate" in="SourceAlpha" result="shadowSpreadOuter1"></feMorphology>
            <feOffset dx="0" dy="0" in="shadowSpreadOuter1" result="shadowOffsetOuter1"></feOffset>
            <feGaussianBlur stdDeviation="4" in="shadowOffsetOuter1" result="shadowBlurOuter1"></feGaussianBlur>
            <feColorMatrix values="0 0 0 0 0.141176471   0 0 0 0 0.607843137   0 0 0 0 0.431372549  0 0 0 1 0" type="matrix" in="shadowBlurOuter1"></feColorMatrix>
        </filter>
    </defs>
    <g id="Logo" stroke="none" stroke-width="1" fill="none" fill-rule="evenodd">
        <circle id="Oval" fill="#666666" cx="256" cy="256" r="256"></circle>
        <g transform="translate(29.000000, 14.000000)">
            <g id="backpack" transform="translate(32.000000, 6.000000)">
                <path d="M140,31 C140,31 140,-3.67455938e-15 194.5,-1.77635684e-15 C249,1.21845699e-16 249,31 249,31" id="Line" stroke="#363945" stroke-width="8" stroke-linecap="square"></path>
                <path d="M39.6828528,202.953812 C31.7790429,204.774031 1.98307463,218.954379 0.0573376867,329.279774 C-0.79095205,377.878261 24.3477798,387.928472 34.3213783,390.00285 L33.7655674,409.393765 C33.1446284,430.87407 103.560735,443.726562 195,443.726562 C286.439265,443.726562 356.855322,430.872343 356.234433,409.393765 L355.681986,390.120222 C365.209688,388.322894 391.40337,378.870759 390.537756,329.279774 C388.559324,215.935502 357.164545,204.069976 350.313611,202.830437 L348.55485,141.471479 C347.944389,119.991173 345,16 195,16 C45,16 42.055562,119.9929 41.4451498,141.471479 L39.6828528,202.953812 Z" id="Combined-Shape" fill="#1F2029"></path>
                <path d="M33.745216,407 C33.745216,407 62.9278099,424.018026 195,424.018026 C327.07219,424.018026 356.254784,407 356.254784,407 C356.254784,407 372.256834,446.109025 195,443.66836 C17.7431656,441.227695 33.745216,407 33.745216,407 Z" id="Line" fill="#363945"></path>
                <path d="M48,202.166699 C48,202.166699 74.2778375,118 195.381236,118 C316.484635,118 342.762472,202.166699 342.762472,202.166699" id="Line" stroke="#363945" stroke-width="2" stroke-linecap="square"></path>
                <path d="M48,108.166699 C48,108.166699 74.2778375,24 195.381236,24 C316.484635,24 342.762472,108.166699 342.762472,108.166699" id="Line" stroke="#363945" stroke-width="2" stroke-linecap="square"></path>
            </g>
            <g id="on-off" transform="translate(146.000000, 190.000000)">
                <g id="Shape">
                    <use fill="black" fill-opacity="1" filter="url(#filter-2)" xlink:href="#path-1"></use>
                    <use stroke="#15A0BC" stroke-width="2" xlink:href="#path-1"></use>
                </g>
                <g id="Shape">
                    <use fill="black" fill-opacity="1" filter="url(#filter-4)" xlink:href="#path-3"></use>
                    <use fill="#15A0BC" fill-rule="evenodd" xlink:href="#path-3"></use>
                </g>
            </g>
            <g id="leds" transform="translate(328.000000, 392.000000)">
                <g id="right">
                    <use fill="black" fill-opacity="1" filter="url(#filter-6)" xlink:href="#path-5"></use>
                    <use fill="#29C432" fill-rule="evenodd" xlink:href="#path-5"></use>
                </g>
                <g id="center">
                    <use fill="black" fill-opacity="1" filter="url(#filter-8)" xlink:href="#path-7"></use>
                    <use fill="#29C432" fill-rule="evenodd" xlink:href="#path-7"></use>
                </g>
                <g id="left">
                    <use fill="black" fill-opacity="1" filter="url(#filter-10)" xlink:href="#path-9"></use>
                    <use fill="#29C432" fill-rule="evenodd" xlink:href="#path-9"></use>
                </g>
            </g>
        </g>
    </g>
</svg>